<svg t="1675602659800" class="icon" viewBox="0 0 1024 1024" version="1.1" xmlns="http://www.w3.org/2000/svg" p-id="3601" width="32" height="32"><path d="M768 426.666667a42.666667 42.666667 0 0 0-42.666667-42.666667H230.826667l98.133333-97.706667a42.666667 42.666667 0 0 0-60.586667-60.586666l-170.666666 170.666666a42.666667 42.666667 0 0 0-8.96 46.506667A42.666667 42.666667 0 0 0 128 469.333333h597.333333a42.666667 42.666667 0 0 0 42.666667-42.666666z m167.253333 154.453333A42.666667 42.666667 0 0 0 896 554.666667H298.666667a42.666667 42.666667 0 0 0 0 85.333333h494.506666l-98.133333 97.706667a42.666667 42.666667 0 0 0 0 60.586666 42.666667 42.666667 0 0 0 60.586667 0l170.666666-170.666666a42.666667 42.666667 0 0 0 8.96-46.506667z" p-id="3602"></path></svg>