<svg width="276" height="241" viewBox="0 0 276 241" fill="none" xmlns="http://www.w3.org/2000/svg">
<g opacity="0.3" clip-path="url(#clip0_203_19)">
<path d="M250.45 129.448C250.45 126.418 252.263 122.915 254.5 121.623C256.737 120.332 258.55 121.742 258.55 124.772L258.55 132.088C258.55 135.118 256.737 138.622 254.5 139.913C252.263 141.205 250.45 139.795 250.45 136.764L250.45 129.448Z" fill="url(#paint0_linear_203_19)"/>
<path d="M255.85 146.32C260.43 142.789 263.95 135.42 263.95 128.97C263.95 127.96 263.346 127.49 262.6 127.921C261.854 128.351 261.25 129.519 261.25 130.529C261.25 135.58 258.228 141.419 254.5 143.571C250.772 145.724 247.75 143.374 247.75 138.323C247.75 137.313 247.146 136.843 246.4 137.274C245.654 137.704 245.05 138.872 245.05 139.882C245.05 146.332 248.57 149.636 253.15 147.879L253.15 151.667L249.1 154.005C248.354 154.435 247.75 155.603 247.75 156.613C247.75 157.623 248.354 158.093 249.1 157.663L259.9 151.427C260.646 150.997 261.25 149.829 261.25 148.819C261.25 147.809 260.646 147.339 259.9 147.769L255.85 150.108L255.85 146.32Z" fill="url(#paint1_linear_203_19)"/>
</g>
<rect width="87.8255" height="87.8255" rx="17" transform="matrix(0.866025 -0.5 0.866025 0.5 72.3564 196.162)" fill="url(#paint2_linear_203_19)" fill-opacity="0.1"/>
<rect width="87.8255" height="87.8255" rx="17" transform="matrix(0.866025 -0.5 0.866025 0.5 72 192.913)" fill="url(#paint3_linear_203_19)" fill-opacity="0.2"/>
<rect opacity="0.6" width="147.109" height="87.8255" rx="17" transform="matrix(0.866025 -0.5 0.866025 0.5 72 185.802)" fill="url(#paint4_linear_203_19)"/>
<rect width="87.8255" height="87.8255" rx="17" transform="matrix(0.866025 -0.5 0.866025 0.5 72 189.913)" fill="url(#paint5_linear_203_19)" fill-opacity="0.4"/>
<rect width="87.8255" height="87.8255" rx="17" transform="matrix(0.866025 -0.5 0.866025 0.5 72 181.913)" fill="url(#paint6_linear_203_19)" fill-opacity="0.8"/>
<g style="mix-blend-mode:darken">
<rect width="87.8255" height="87.8255" rx="17" transform="matrix(0.866025 -0.5 0.866025 0.5 72 177.913)" fill="url(#paint7_linear_203_19)"/>
</g>
<rect width="77.0759" height="77.0759" transform="matrix(0.866025 -0.5 0.866025 0.5 81 171.846)" stroke="url(#paint8_linear_203_19)" stroke-width="10" stroke-linejoin="bevel"/>
<rect width="53.3487" height="26.8269" transform="matrix(0.866025 -0.5 2.20305e-08 1 147.622 159.482)" fill="#5B5C5E"/>
<rect width="53.3487" height="26.4422" transform="matrix(0.866025 0.5 -2.20305e-08 1 101.421 133.192)" fill="#5B5C5E"/>
<g style="mix-blend-mode:darken">
<rect width="53.3487" height="53.3487" transform="matrix(0.866025 -0.5 0.866025 0.5 101 132.674)" fill="#5B5C5E"/>
</g>
<rect width="77.0473" height="76.8635" transform="matrix(0.866025 -0.5 0.866025 0.5 81 94.5236)" stroke="url(#paint9_linear_203_19)" stroke-width="10" stroke-linejoin="bevel"/>
<rect width="76.8635" height="77.4166" transform="matrix(0.866025 -0.5 2.20305e-08 1 147.934 132.955)" stroke="url(#paint10_linear_203_19)" stroke-width="10" stroke-linejoin="bevel"/>
<path d="M81 97.9835C81 96.3266 82.1632 95.655 83.5981 96.4835L144.6 131.703C146.035 132.531 147.198 134.546 147.198 136.203L147.198 207.002C147.198 208.659 146.035 209.331 144.6 208.502L83.5981 173.283C82.1632 172.454 81 170.44 81 168.783L81 97.9835Z" stroke="url(#paint11_linear_203_19)" stroke-width="10" stroke-linejoin="round"/>
<g opacity="0.3">
<rect width="100.034" height="55.529" rx="27.7645" transform="matrix(0.866025 -0.5 2.20305e-08 1 0 50.017)" fill="url(#paint12_linear_203_19)"/>
<rect width="30.2143" height="4.89962" rx="2.44981" transform="matrix(0.866025 -0.5 2.20305e-08 1 11.3152 52.4668)" fill="#C4C4C4"/>
<rect width="30.2143" height="4.89962" rx="2.44981" transform="matrix(0.866025 -0.5 2.20305e-08 1 48.7968 64.7158)" fill="#C4C4C4"/>
<g style="mix-blend-mode:overlay">
<rect width="35.9305" height="4.89962" rx="2.44981" transform="matrix(0.866025 -0.5 2.20305e-08 1 43.8463 60.6328)" fill="#F06642"/>
</g>
<g style="mix-blend-mode:multiply">
<rect width="73.4943" height="4.89962" rx="2.44981" transform="matrix(0.866025 -0.5 2.20305e-08 1 11.3152 60.6328)" fill="#FF7B33"/>
</g>
<g style="mix-blend-mode:multiply">
<rect width="35.5222" height="4.89962" rx="2.44981" transform="matrix(0.866025 -0.5 2.20305e-08 1 11.3152 79.4147)" fill="#E04F52"/>
</g>
<g style="mix-blend-mode:soft-light">
<rect width="61.6535" height="4.89962" rx="2.44981" transform="matrix(0.866025 -0.5 2.20305e-08 1 11.3152 69.2072)" fill="#C4C4C4"/>
</g>
</g>
<rect width="100.034" height="55.529" rx="27.7645" transform="matrix(0.866025 -0.5 2.20305e-08 1 15.6319 52.8751)" fill="url(#paint13_linear_203_19)"/>
<rect width="30.2143" height="4.89962" rx="2.44981" transform="matrix(0.866025 -0.5 2.20305e-08 1 26.9471 55.3249)" fill="#C4C4C4"/>
<rect width="30.2143" height="4.89962" rx="2.44981" transform="matrix(0.866025 -0.5 2.20305e-08 1 64.4286 67.5739)" fill="#C4C4C4"/>
<g style="mix-blend-mode:overlay">
<rect width="35.9305" height="4.89962" rx="2.44981" transform="matrix(0.866025 -0.5 2.20305e-08 1 59.4782 63.4909)" fill="#F06642"/>
</g>
<g style="mix-blend-mode:multiply">
<rect width="73.4943" height="4.89962" rx="2.44981" transform="matrix(0.866025 -0.5 2.20305e-08 1 26.9471 63.4909)" fill="#FF7B33"/>
</g>
<g style="mix-blend-mode:multiply">
<rect width="35.5222" height="4.89962" rx="2.44981" transform="matrix(0.866025 -0.5 2.20305e-08 1 26.9471 82.2728)" fill="#E04F52"/>
</g>
<g style="mix-blend-mode:soft-light">
<rect width="61.6535" height="4.89962" rx="2.44981" transform="matrix(0.866025 -0.5 2.20305e-08 1 26.9471 72.0652)" fill="#C4C4C4"/>
</g>
<defs>
<linearGradient id="paint0_linear_203_19" x1="260.087" y1="144.59" x2="241.912" y2="117.829" gradientUnits="userSpaceOnUse">
<stop stop-color="#5B5C5E"/>
<stop offset="0.322917" stop-color="#2D77C5"/>
<stop offset="1" stop-color="#419EFE"/>
</linearGradient>
<linearGradient id="paint1_linear_203_19" x1="260.087" y1="144.59" x2="241.912" y2="117.829" gradientUnits="userSpaceOnUse">
<stop stop-color="#5B5C5E"/>
<stop offset="0.322917" stop-color="#2D77C5"/>
<stop offset="1" stop-color="#419EFE"/>
</linearGradient>
<linearGradient id="paint2_linear_203_19" x1="69.8725" y1="69.8725" x2="63.7988" y2="-34.0891" gradientUnits="userSpaceOnUse">
<stop stop-color="#419EFE"/>
<stop offset="1" stop-color="#5B5C5E"/>
</linearGradient>
<linearGradient id="paint3_linear_203_19" x1="69.8725" y1="69.8725" x2="63.7988" y2="-34.0891" gradientUnits="userSpaceOnUse">
<stop stop-color="#419EFE"/>
<stop offset="1" stop-color="#419EFE"/>
</linearGradient>
<linearGradient id="paint4_linear_203_19" x1="117.038" y1="69.8725" x2="113.404" y2="-34.3172" gradientUnits="userSpaceOnUse">
<stop stop-color="#5B5C5E"/>
<stop offset="0.322917" stop-color="#2D77C5"/>
<stop offset="1" stop-color="#419EFE"/>
</linearGradient>
<linearGradient id="paint5_linear_203_19" x1="69.8725" y1="69.8725" x2="63.7988" y2="-34.0891" gradientUnits="userSpaceOnUse">
<stop stop-color="#5B5C5E"/>
<stop offset="1" stop-color="#419EFE"/>
</linearGradient>
<linearGradient id="paint6_linear_203_19" x1="69.8725" y1="69.8725" x2="63.7988" y2="-34.0891" gradientUnits="userSpaceOnUse">
<stop stop-color="#419EFE"/>
<stop offset="1" stop-color="#5B5C5E"/>
</linearGradient>
<linearGradient id="paint7_linear_203_19" x1="69.8725" y1="69.8725" x2="63.7988" y2="-34.0891" gradientUnits="userSpaceOnUse">
<stop stop-color="#5B5C5E" stop-opacity="0.58"/>
<stop offset="1" stop-color="#419EFE"/>
</linearGradient>
<linearGradient id="paint8_linear_203_19" x1="38.5379" y1="0" x2="38.5379" y2="77.0759" gradientUnits="userSpaceOnUse">
<stop stop-color="#419EFE"/>
<stop offset="0.301983" stop-color="#498ACE"/>
<stop offset="0.302083" stop-color="#498ACE"/>
<stop offset="1" stop-color="#5B5C5E"/>
</linearGradient>
<linearGradient id="paint9_linear_203_19" x1="38.5236" y1="0" x2="38.5236" y2="76.8635" gradientUnits="userSpaceOnUse">
<stop stop-color="#419EFE"/>
<stop offset="0.301983" stop-color="#498ACE"/>
<stop offset="0.302083" stop-color="#498ACE"/>
<stop offset="1" stop-color="#5B5C5E"/>
</linearGradient>
<linearGradient id="paint10_linear_203_19" x1="38.4318" y1="0" x2="38.4318" y2="77.4166" gradientUnits="userSpaceOnUse">
<stop stop-color="#419EFE"/>
<stop offset="0.301983" stop-color="#498ACE"/>
<stop offset="0.302083" stop-color="#498ACE"/>
<stop offset="1" stop-color="#5B5C5E"/>
</linearGradient>
<linearGradient id="paint11_linear_203_19" x1="114.099" y1="114.093" x2="80.8439" y2="171.693" gradientUnits="userSpaceOnUse">
<stop stop-color="#419EFE"/>
<stop offset="0.301983" stop-color="#498ACE"/>
<stop offset="0.302083" stop-color="#498ACE"/>
<stop offset="1" stop-color="#5B5C5E"/>
</linearGradient>
<linearGradient id="paint12_linear_203_19" x1="79.5853" y1="44.1779" x2="77.4486" y2="-21.7084" gradientUnits="userSpaceOnUse">
<stop stop-color="#5B5C5E"/>
<stop offset="0.322917" stop-color="#2D77C5"/>
<stop offset="1" stop-color="#419EFE"/>
</linearGradient>
<linearGradient id="paint13_linear_203_19" x1="79.5853" y1="44.1779" x2="77.4486" y2="-21.7084" gradientUnits="userSpaceOnUse">
<stop stop-color="#5B5C5E"/>
<stop offset="0.322917" stop-color="#2D77C5"/>
<stop offset="1" stop-color="#419EFE"/>
</linearGradient>
<clipPath id="clip0_203_19">
<rect width="31.1769" height="36.5799" fill="white" transform="matrix(0.866025 -0.5 2.20305e-08 1 241 127.588)"/>
</clipPath>
</defs>
</svg>